# Blender 4.0.2
# www.blender.org
mtllib untitled.mtl
o Cube
v -2.849648 1.000000 -2.849648
v -2.849648 -1.000000 -2.849648
v -2.849648 1.000000 2.849648
v -2.849648 -1.000000 2.849648
v -3.422843 -1.000000 -1.711421
v -3.924696 -1.000000 0.000000
v -3.422843 -1.000000 1.711421
v -3.422843 1.000000 1.711421
v -3.924696 1.000000 0.000000
v -3.422843 1.000000 -1.711421
v 0.000000 -1.000000 -3.924696
v -1.711421 -1.000000 -3.422843
v 0.000000 1.000000 3.924696
v -1.711421 1.000000 3.422843
v -1.711421 -1.000000 3.422843
v 0.000000 -1.000000 3.924696
v -1.711421 1.000000 -3.422843
v 0.000000 1.000000 -3.924696
v 0.000000 -1.000000 -1.711421
v -1.557044 -1.000000 -1.557044
v 0.000000 -1.000000 0.000000
v -1.711421 -1.000000 0.000000
v 0.000000 -1.000000 1.711421
v -1.557044 -1.000000 1.557044
v -2.582622 -0.019679 -2.582622
v -3.102105 -0.019679 -1.551053
v -2.582622 -0.019679 2.582622
v -1.551053 -0.019679 3.102105
v -1.551053 1.000000 3.102105
v -2.582622 1.000000 2.582622
v -3.102105 1.000000 -1.551053
v -2.582622 1.000000 -2.582622
v -3.102105 1.000000 1.551053
v -3.556933 1.000000 -0.000000
v 0.000000 1.000000 3.556933
v -1.551053 1.000000 -3.102105
v 0.000000 1.000000 -3.556933
v -3.102105 -0.019679 1.551053
v -3.556933 -0.019679 -0.000000
v 0.000000 -0.019679 3.556933
v -1.551053 -0.019679 -3.102105
v 0.000000 -0.019679 -3.556933
v -1.068390 1.003458 -0.534195
v 0.000000 -0.019679 -1.551053
v -1.068390 1.003458 0.534195
v 0.000000 -0.019679 -0.000000
v -0.889476 1.003458 0.889476
v 0.000000 -0.019679 1.551053
v -0.889476 -0.006778 0.889476
v -1.068390 -0.006778 0.534195
v -1.068390 -0.006778 -0.534195
v -0.889476 -0.006778 -0.889476
v -0.534195 -0.006778 1.068390
v -1.225036 -0.006778 -0.000000
v 0.000000 -0.006778 1.225036
v -0.534195 -0.006778 -1.068390
v 0.000000 -0.006778 -1.225036
v -1.312661 1.003458 -0.656331
v 0.000000 -0.006778 -0.534195
v -1.312661 1.003458 0.656331
v 0.000000 -0.006778 -0.000000
v -1.092841 1.003458 1.092841
v 0.000000 -0.006778 0.534195
v -0.889476 1.003458 -0.889476
v -0.534195 1.003458 1.068390
v -1.225036 1.003458 -0.000000
v 0.000000 1.003458 1.225036
v -0.534195 1.003458 -1.068390
v 0.000000 1.003458 -1.225036
v -1.312661 1.107651 -0.656331
v 0.000000 1.003458 -0.534195
v -1.312661 1.107651 0.656331
v 0.000000 1.003458 -0.000000
v -1.092841 1.107651 1.092841
v 0.000000 1.003458 0.534195
v -1.092841 1.003458 -1.092841
v -0.656331 1.003458 1.312661
v -1.505122 1.003458 -0.000000
v 0.000000 1.003458 1.505122
v -0.656331 1.003458 -1.312661
v 0.000000 1.003458 -1.505122
v -0.568257 1.107651 -0.284129
v 0.000000 1.003458 -0.656331
v -0.568257 1.107651 0.284129
v 0.000000 1.003458 -0.000000
v -0.473096 1.107651 0.473096
v 0.000000 1.003458 0.656331
v -1.092841 1.107651 -1.092841
v -0.656331 1.107651 1.312661
v -1.505122 1.107651 -0.000000
v 0.000000 1.107651 1.505122
v -0.656331 1.107651 -1.312661
v 0.000000 1.107651 -1.505122
v -0.568257 1.802185 -0.284129
v 0.000000 1.107651 -0.656331
v -0.568257 1.802185 0.284129
v 0.000000 1.107651 -0.000000
v -0.473096 1.802185 0.473096
v 0.000000 1.107651 0.656331
v -0.473096 1.107651 -0.473096
v -0.284129 1.107651 0.568257
v -0.651574 1.107651 -0.000000
v 0.000000 1.107651 0.651574
v -0.284129 1.107651 -0.568257
v 0.000000 1.107651 -0.651574
v -0.412132 1.802185 -0.206066
v 0.000000 1.107651 -0.284129
v -0.412132 1.802185 0.206066
v 0.000000 1.107651 -0.000000
v -0.343116 1.802185 0.343116
v 0.000000 1.107651 0.284129
v -0.473096 1.802185 -0.473096
v -0.284129 1.802185 0.568257
v -0.651574 1.802185 -0.000000
v 0.000000 1.802185 0.651574
v -0.284129 1.802185 -0.568257
v 0.000000 1.802185 -0.651574
v -0.217019 3.960287 -0.108509
v 0.000000 1.802185 -0.284129
v -0.217019 3.960287 0.108509
v 0.000000 1.802185 -0.000000
v -0.180676 3.960287 0.180676
v 0.000000 1.802185 0.284129
v -0.343116 1.802185 -0.343116
v -0.206066 1.802185 0.412132
v -0.472559 1.802185 -0.000000
v 0.000000 1.802185 0.472559
v -0.206066 1.802185 -0.412132
v 0.000000 1.802185 -0.472559
v -0.129737 3.960287 -0.064869
v 0.000000 1.802185 -0.206066
v -0.129737 3.960287 0.064869
v 0.000000 1.802185 -0.000000
v -0.108011 3.960287 0.108011
v 0.000000 1.802185 0.206066
v -0.180676 3.960287 -0.180676
v -0.108509 3.960287 0.217019
v -0.248838 3.960287 -0.000000
v 0.000000 3.960287 0.248838
v -0.108509 3.960287 -0.217019
v 0.000000 3.960287 -0.248838
v -0.077851 4.700490 -0.038925
v 0.000000 3.960287 -0.108509
v -0.077851 4.700490 0.038925
v 0.000000 3.960287 -0.000000
v -0.064814 4.700490 0.064814
v 0.000000 3.960287 0.108509
v -0.108011 3.960287 -0.108011
v -0.064869 3.960287 0.129737
v -0.148759 3.960287 -0.000000
v 0.000000 3.960287 0.148759
v -0.064869 3.960287 -0.129737
v 0.000000 3.960287 -0.148759
v 0.000000 3.960287 -0.064869
v 0.000000 3.960287 -0.000000
v 0.000000 3.960287 0.064869
v -0.064814 4.700490 -0.064814
v -0.038925 4.700490 0.077851
v -0.089265 4.700490 -0.000000
v 0.000000 4.700490 0.089265
v -0.038925 4.700490 -0.077851
v 0.000000 4.700490 -0.089265
v -0.035414 4.700490 -0.035414
v 0.000000 4.700490 -0.038925
v -0.038925 4.700490 -0.000000
v 0.000000 4.700490 -0.000000
v -0.035414 4.700490 0.035414
v 0.000000 4.700490 0.038925
v 2.849648 1.000000 -2.849648
v 2.849648 -1.000000 -2.849648
v 2.849648 1.000000 2.849648
v 2.849648 -1.000000 2.849648
v 3.422843 -1.000000 -1.711421
v 3.924696 -1.000000 0.000000
v 3.422843 -1.000000 1.711421
v 3.422843 1.000000 1.711421
v 3.924696 1.000000 0.000000
v 3.422843 1.000000 -1.711421
v 1.711421 -1.000000 -3.422843
v 1.711421 1.000000 3.422843
v 1.711421 -1.000000 3.422843
v 1.711421 1.000000 -3.422843
v 1.557044 -1.000000 -1.557044
v 1.711421 -1.000000 0.000000
v 1.557044 -1.000000 1.557044
v 2.582622 -0.019679 -2.582622
v 3.102105 -0.019679 -1.551053
v 2.582622 -0.019679 2.582622
v 1.551053 -0.019679 3.102105
v 1.551053 1.000000 3.102105
v 2.582622 1.000000 2.582622
v 3.102105 1.000000 -1.551053
v 2.582622 1.000000 -2.582622
v 3.102105 1.000000 1.551053
v 3.556933 1.000000 -0.000000
v 1.551053 1.000000 -3.102105
v 3.102105 -0.019679 1.551053
v 3.556933 -0.019679 -0.000000
v 1.551053 -0.019679 -3.102105
v 1.068390 1.003458 -0.534195
v 1.068390 1.003458 0.534195
v 0.889476 1.003458 0.889476
v 0.889476 -0.006778 0.889476
v 1.068390 -0.006778 0.534195
v 1.068390 -0.006778 -0.534195
v 0.889476 -0.006778 -0.889476
v 0.534195 -0.006778 1.068390
v 1.225036 -0.006778 -0.000000
v 0.534195 -0.006778 -1.068390
v 1.312661 1.003458 -0.656331
v 1.312661 1.003458 0.656331
v 1.092841 1.003458 1.092841
v 0.889476 1.003458 -0.889476
v 0.534195 1.003458 1.068390
v 1.225036 1.003458 -0.000000
v 0.534195 1.003458 -1.068390
v 1.312661 1.107651 -0.656331
v 1.312661 1.107651 0.656331
v 1.092841 1.107651 1.092841
v 1.092841 1.003458 -1.092841
v 0.656331 1.003458 1.312661
v 1.505122 1.003458 -0.000000
v 0.656331 1.003458 -1.312661
v 0.568257 1.107651 -0.284129
v 0.568257 1.107651 0.284129
v 0.473096 1.107651 0.473096
v 1.092841 1.107651 -1.092841
v 0.656331 1.107651 1.312661
v 1.505122 1.107651 -0.000000
v 0.656331 1.107651 -1.312661
v 0.568257 1.802185 -0.284129
v 0.568257 1.802185 0.284129
v 0.473096 1.802185 0.473096
v 0.473096 1.107651 -0.473096
v 0.284129 1.107651 0.568257
v 0.651574 1.107651 -0.000000
v 0.284129 1.107651 -0.568257
v 0.412132 1.802185 -0.206066
v 0.412132 1.802185 0.206066
v 0.343116 1.802185 0.343116
v 0.473096 1.802185 -0.473096
v 0.284129 1.802185 0.568257
v 0.651574 1.802185 -0.000000
v 0.284129 1.802185 -0.568257
v 0.217019 3.960287 -0.108509
v 0.217019 3.960287 0.108509
v 0.180676 3.960287 0.180676
v 0.343116 1.802185 -0.343116
v 0.206066 1.802185 0.412132
v 0.472559 1.802185 -0.000000
v 0.206066 1.802185 -0.412132
v 0.129737 3.960287 -0.064869
v 0.129737 3.960287 0.064869
v 0.108011 3.960287 0.108011
v 0.180676 3.960287 -0.180676
v 0.108509 3.960287 0.217019
v 0.248838 3.960287 -0.000000
v 0.108509 3.960287 -0.217019
v 0.077851 4.700490 -0.038925
v 0.077851 4.700490 0.038925
v 0.064814 4.700490 0.064814
v 0.108011 3.960287 -0.108011
v 0.064869 3.960287 0.129737
v 0.148759 3.960287 -0.000000
v 0.064869 3.960287 -0.129737
v 0.064814 4.700490 -0.064814
v 0.038925 4.700490 0.077851
v 0.089265 4.700490 -0.000000
v 0.038925 4.700490 -0.077851
v 0.035414 4.700490 -0.035414
v 0.038925 4.700490 -0.000000
v 0.035414 4.700490 0.035414
vn -0.0000 1.0000 -0.0000
vn -0.4498 -0.0000 0.8931
vn -0.8931 -0.0000 -0.4498
vn -0.8931 -0.0000 0.4498
vn -0.9596 -0.0000 0.2814
vn -0.9596 -0.0000 -0.2814
vn -0.0000 -1.0000 -0.0000
vn -0.4498 -0.0000 -0.8931
vn -0.2814 -0.0000 -0.9596
vn -0.2814 -0.0000 0.9596
vn 0.9596 -0.0000 0.2814
vn 0.4498 -0.0000 0.8931
vn 0.9596 -0.0000 -0.2814
vn 0.2814 -0.0000 -0.9596
vn 0.4498 -0.0000 -0.8931
vn 0.8931 -0.0000 -0.4498
vn 0.2814 -0.0000 0.9596
vn 0.8931 -0.0000 0.4498
vn -0.0055 1.0000 -0.0016
vn -0.0051 1.0000 -0.0026
vn 1.0000 -0.0000 -0.0000
vn -0.0016 1.0000 -0.0055
vn -0.0055 1.0000 0.0016
vn -0.0026 1.0000 -0.0051
vn -0.0051 1.0000 0.0026
vn -0.0026 1.0000 0.0051
vn -0.0016 1.0000 0.0055
vn -1.0000 -0.0000 -0.0000
vn -0.9549 0.0990 -0.2800
vn -0.2800 0.0990 -0.9549
vn -0.8886 0.1006 0.4475
vn -0.9549 0.0990 0.2800
vn -0.4475 0.1006 -0.8886
vn -0.8886 0.1006 -0.4475
vn -0.2800 0.0990 0.9549
vn -0.4475 0.1006 0.8886
vn -0.9568 0.0769 -0.2806
vn -0.2806 0.0769 -0.9568
vn -0.8904 0.0781 0.4484
vn -0.9568 0.0769 0.2806
vn -0.4484 0.0781 -0.8904
vn -0.8904 0.0781 -0.4484
vn -0.2806 0.0769 0.9568
vn -0.4484 0.0781 0.8904
vn 0.0055 1.0000 -0.0016
vn 0.0051 1.0000 -0.0026
vn 0.0016 1.0000 -0.0055
vn 0.0055 1.0000 0.0016
vn 0.0026 1.0000 -0.0051
vn 0.0051 1.0000 0.0026
vn 0.0026 1.0000 0.0051
vn 0.0016 1.0000 0.0055
vn 0.9549 0.0990 -0.2800
vn 0.2800 0.0990 -0.9549
vn 0.8886 0.1006 0.4475
vn 0.9549 0.0990 0.2800
vn 0.4475 0.1006 -0.8886
vn 0.8886 0.1006 -0.4475
vn 0.2800 0.0990 0.9549
vn 0.4475 0.1006 0.8886
vn 0.9568 0.0769 -0.2806
vn 0.2806 0.0769 -0.9568
vn 0.8904 0.0781 0.4484
vn 0.9568 0.0769 0.2806
vn 0.4484 0.0781 -0.8904
vn 0.8904 0.0781 -0.4484
vn 0.2806 0.0769 0.9568
vn 0.4484 0.0781 0.8904
vt 0.625000 0.250000
vt 0.625000 0.187500
vt 0.375000 0.937500
vt 0.625000 0.937500
vt 0.625000 1.000000
vt 0.375000 1.000000
vt 0.375000 0.187500
vt 0.375000 0.250000
vt 0.375000 0.000000
vt 0.625000 0.000000
vt 0.625000 0.062500
vt 0.375000 0.062500
vt 0.625000 0.125000
vt 0.375000 0.125000
vt 0.625000 0.375000
vt 0.625000 0.312500
vt 0.625000 0.875000
vt 0.125000 0.625000
vt 0.187500 0.625000
vt 0.187500 0.687500
vt 0.125000 0.687500
vt 0.250000 0.625000
vt 0.250000 0.687500
vt 0.125000 0.562500
vt 0.187500 0.562500
vt 0.250000 0.562500
vt 0.125000 0.500000
vt 0.187500 0.500000
vt 0.250000 0.500000
vt 0.375000 0.312500
vt 0.375000 0.375000
vt 0.187500 0.750000
vt 0.125000 0.750000
vt 0.250000 0.750000
vt 0.375000 0.875000
vt 0.000000 0.000000
vt 0.812500 0.687500
vt 0.875000 0.687500
vt 0.875000 0.750000
vt 0.812500 0.750000
vt 0.812500 0.500000
vt 0.875000 0.500000
vt 0.875000 0.562500
vt 0.812500 0.562500
vt 0.875000 0.625000
vt 0.812500 0.625000
vt 0.750000 0.625000
vt 0.750000 0.687500
vt 0.750000 0.562500
vt 0.750000 0.500000
vt 0.750000 0.750000
s 0
usemtl Material
f 1/1/1 10/2/1 31/2/1 32/1/1
f 15/3/2 14/4/2 3/5/2 4/6/2
f 5/7/3 10/2/3 1/1/3 2/8/3
f 4/9/4 3/10/4 8/11/4 7/12/4
f 7/12/5 8/11/5 9/13/5 6/14/5
f 6/14/6 9/13/6 10/2/6 5/7/6
f 18/15/1 17/16/1 36/16/1 37/15/1
f 17/16/1 1/1/1 32/1/1 36/16/1
f 3/5/1 14/4/1 29/4/1 30/5/1
f 10/2/1 9/13/1 34/13/1 31/2/1
f 9/13/1 8/11/1 33/11/1 34/13/1
f 14/4/1 13/17/1 35/17/1 29/4/1
f 8/11/1 3/10/1 30/10/1 33/11/1
f 6/18/7 22/19/7 24/20/7 7/21/7
f 22/19/7 21/22/7 23/23/7 24/20/7
f 5/24/7 20/25/7 22/19/7 6/18/7
f 20/25/7 19/26/7 21/22/7 22/19/7
f 2/27/7 12/28/7 20/25/7 5/24/7
f 12/28/7 11/29/7 19/26/7 20/25/7
f 2/8/8 1/1/8 17/16/8 12/30/8
f 12/30/9 17/16/9 18/15/9 11/31/9
f 7/21/7 24/20/7 15/32/7 4/33/7
f 24/20/7 23/23/7 16/34/7 15/32/7
f 16/35/10 13/17/10 14/4/10 15/3/10
f 31/2/11 34/13/11 39/13/11 26/2/11
f 36/16/12 32/1/12 25/1/12 41/16/12
f 34/13/13 33/11/13 38/11/13 39/13/13
f 29/4/14 35/17/14 40/17/14 28/4/14
f 30/5/15 29/4/15 28/4/15 27/5/15
f 33/11/16 30/10/16 27/10/16 38/11/16
f 37/15/17 36/16/17 41/16/17 42/15/17
f 32/1/18 31/2/18 26/2/18 25/1/18
f 26/2/19 39/13/19 54/13/19 51/2/19
f 25/1/20 26/2/20 51/2/20 52/1/20
f 48/36/21 46/36/21 61/36/21 63/36/21
f 42/15/22 41/16/22 56/16/22 57/15/22
f 39/13/23 38/11/23 50/11/23 54/13/23
f 40/36/21 48/36/21 63/36/21 55/36/21
f 41/16/24 25/1/24 52/1/24 56/16/24
f 46/36/21 44/36/21 59/36/21 61/36/21
f 56/16/8 52/1/8 64/1/8 68/16/8
f 61/36/21 59/36/21 71/36/21 73/36/21
f 49/5/2 53/4/2 65/4/2 47/5/2
f 53/4/10 55/17/10 67/17/10 65/4/10
f 52/1/3 51/2/3 43/2/3 64/1/3
f 59/36/21 57/36/21 69/36/21 71/36/21
f 51/2/6 54/13/6 66/13/6 43/2/6
f 63/36/21 61/36/21 73/36/21 75/36/21
f 38/11/25 27/10/25 49/10/25 50/11/25
f 44/36/21 42/36/21 57/36/21 59/36/21
f 27/5/26 28/4/26 53/4/26 49/5/26
f 28/4/27 40/17/27 55/17/27 53/4/27
f 73/36/1 71/36/1 83/36/1 85/36/1
f 47/5/7 65/4/7 77/4/7 62/5/7
f 65/4/7 67/17/7 79/17/7 77/4/7
f 64/1/7 43/2/7 58/2/7 76/1/7
f 71/36/28 69/36/28 81/36/28 83/36/28
f 43/2/7 66/13/7 78/13/7 58/2/7
f 75/36/1 73/36/1 85/36/1 87/36/1
f 69/15/7 68/16/7 80/16/7 81/15/7
f 55/36/21 63/36/21 75/36/21 67/36/21
f 54/13/5 50/11/5 45/11/5 66/13/5
f 50/11/4 49/10/4 47/10/4 45/11/4
f 57/15/9 56/16/9 68/16/9 69/15/9
f 62/5/2 77/4/2 89/4/2 74/5/2
f 77/4/10 79/17/10 91/17/10 89/4/10
f 76/1/3 58/2/3 70/2/3 88/1/3
f 83/36/21 81/36/21 93/36/21 95/36/21
f 58/2/6 78/13/6 90/13/6 70/2/6
f 87/36/21 85/36/21 97/36/21 99/36/21
f 81/15/9 80/16/9 92/16/9 93/15/9
f 60/11/4 62/10/4 74/10/4 72/11/4
f 68/16/7 64/1/7 76/1/7 80/16/7
f 67/36/28 75/36/28 87/36/28 79/36/28
f 66/13/7 45/11/7 60/11/7 78/13/7
f 45/11/7 47/10/7 62/10/7 60/11/7
f 74/5/1 89/4/1 101/4/1 86/5/1
f 89/4/1 91/17/1 103/17/1 101/4/1
f 88/1/1 70/2/1 82/2/1 100/1/1
f 95/36/1 93/36/1 105/36/1 107/36/1
f 70/2/1 90/13/1 102/13/1 82/2/1
f 99/36/1 97/36/1 109/36/1 111/36/1
f 93/15/1 92/16/1 104/16/1 105/15/1
f 72/11/1 74/10/1 86/10/1 84/11/1
f 85/36/21 83/36/21 95/36/21 97/36/21
f 80/16/8 76/1/8 88/1/8 92/16/8
f 79/36/21 87/36/21 99/36/21 91/36/21
f 78/13/5 60/11/5 72/11/5 90/13/5
f 100/1/3 82/2/3 94/2/3 112/1/3
f 107/36/21 105/36/21 117/36/21 119/36/21
f 82/2/6 102/13/6 114/13/6 94/2/6
f 111/36/21 109/36/21 121/36/21 123/36/21
f 105/15/9 104/16/9 116/16/9 117/15/9
f 84/11/4 86/10/4 98/10/4 96/11/4
f 102/13/5 84/11/5 96/11/5 114/13/5
f 103/36/21 111/36/21 123/36/21 115/36/21
f 97/36/1 95/36/1 107/36/1 109/36/1
f 92/16/1 88/1/1 100/1/1 104/16/1
f 91/36/1 99/36/1 111/36/1 103/36/1
f 90/13/1 72/11/1 84/11/1 102/13/1
f 112/1/1 94/2/1 106/2/1 124/1/1
f 119/36/21 117/36/21 129/36/21 131/36/21
f 94/2/1 114/13/1 126/13/1 106/2/1
f 123/36/21 121/36/21 133/36/21 135/36/21
f 117/15/1 116/16/1 128/16/1 129/15/1
f 96/11/1 98/10/1 110/10/1 108/11/1
f 114/13/1 96/11/1 108/11/1 126/13/1
f 115/36/21 123/36/21 135/36/21 127/36/21
f 101/4/10 103/17/10 115/17/10 113/4/10
f 86/5/2 101/4/2 113/4/2 98/5/2
f 109/36/21 107/36/21 119/36/21 121/36/21
f 104/16/8 100/1/8 112/1/8 116/16/8
f 131/36/21 129/36/21 141/36/21 143/36/21
f 106/2/29 126/13/29 138/13/29 118/2/29
f 135/36/21 133/36/21 145/36/21 147/36/21
f 129/15/30 128/16/30 140/16/30 141/15/30
f 108/11/31 110/10/31 122/10/31 120/11/31
f 126/13/32 108/11/32 120/11/32 138/13/32
f 127/36/21 135/36/21 147/36/21 139/36/21
f 128/16/33 124/1/33 136/1/33 140/16/33
f 113/4/1 115/17/1 127/17/1 125/4/1
f 98/5/1 113/4/1 125/4/1 110/5/1
f 121/36/21 119/36/21 131/36/21 133/36/21
f 116/16/1 112/1/1 124/1/1 128/16/1
f 118/2/1 138/13/1 150/13/1 130/2/1
f 147/36/1 145/36/1 155/36/1 156/36/1
f 141/15/1 140/16/1 152/16/1 153/15/1
f 120/11/1 122/10/1 134/10/1 132/11/1
f 138/13/1 120/11/1 132/11/1 150/13/1
f 139/36/28 147/36/28 156/36/28 151/36/28
f 140/16/1 136/1/1 148/1/1 152/16/1
f 145/36/1 143/36/1 154/36/1 155/36/1
f 124/1/34 106/2/34 118/2/34 136/1/34
f 125/4/35 127/17/35 139/17/35 137/4/35
f 110/5/36 125/4/36 137/4/36 122/5/36
f 133/36/21 131/36/21 143/36/21 145/36/21
f 130/2/37 150/13/37 159/13/37 142/2/37
f 156/36/21 155/36/21 166/36/21 168/36/21
f 153/15/38 152/16/38 161/16/38 162/15/38
f 132/11/39 134/10/39 146/10/39 144/11/39
f 150/13/40 132/11/40 144/11/40 159/13/40
f 151/36/21 156/36/21 168/36/21 160/36/21
f 152/16/41 148/1/41 157/1/41 161/16/41
f 155/36/21 154/36/21 164/36/21 166/36/21
f 143/36/1 141/36/1 153/36/1 154/36/1
f 136/1/1 118/2/1 130/2/1 148/1/1
f 137/4/1 139/17/1 151/17/1 149/4/1
f 122/5/1 137/4/1 149/4/1 134/5/1
f 167/37/1 144/38/1 146/39/1 158/40/1
f 161/41/1 157/42/1 142/43/1 163/44/1
f 163/44/1 142/43/1 159/45/1 165/46/1
f 165/46/1 159/45/1 144/38/1 167/37/1
f 166/47/1 165/46/1 167/37/1 168/48/1
f 164/49/1 163/44/1 165/46/1 166/47/1
f 162/50/1 161/41/1 163/44/1 164/49/1
f 168/48/1 167/37/1 158/40/1 160/51/1
f 154/36/21 153/36/21 162/36/21 164/36/21
f 148/1/42 130/2/42 142/2/42 157/1/42
f 149/4/43 151/17/43 160/17/43 158/4/43
f 134/5/44 149/4/44 158/4/44 146/5/44
f 169/1/1 193/1/1 192/2/1 178/2/1
f 181/3/12 172/6/12 171/5/12 180/4/12
f 173/7/16 170/8/16 169/1/16 178/2/16
f 172/9/18 175/12/18 176/11/18 171/10/18
f 175/12/11 174/14/11 177/13/11 176/11/11
f 174/14/13 173/7/13 178/2/13 177/13/13
f 18/15/1 37/15/1 196/16/1 182/16/1
f 182/16/1 196/16/1 193/1/1 169/1/1
f 171/5/1 191/5/1 190/4/1 180/4/1
f 178/2/1 192/2/1 195/13/1 177/13/1
f 177/13/1 195/13/1 194/11/1 176/11/1
f 180/4/1 190/4/1 35/17/1 13/17/1
f 176/11/1 194/11/1 191/10/1 171/10/1
f 174/18/7 175/21/7 185/20/7 184/19/7
f 184/19/7 185/20/7 23/23/7 21/22/7
f 173/24/7 174/18/7 184/19/7 183/25/7
f 183/25/7 184/19/7 21/22/7 19/26/7
f 170/27/7 173/24/7 183/25/7 179/28/7
f 179/28/7 183/25/7 19/26/7 11/29/7
f 170/8/15 179/30/15 182/16/15 169/1/15
f 179/30/14 11/31/14 18/15/14 182/16/14
f 175/21/7 172/33/7 181/32/7 185/20/7
f 185/20/7 181/32/7 16/34/7 23/23/7
f 16/35/17 181/3/17 180/4/17 13/17/17
f 192/2/5 187/2/5 198/13/5 195/13/5
f 196/16/2 199/16/2 186/1/2 193/1/2
f 195/13/6 198/13/6 197/11/6 194/11/6
f 190/4/9 189/4/9 40/17/9 35/17/9
f 191/5/8 188/5/8 189/4/8 190/4/8
f 194/11/3 197/11/3 188/10/3 191/10/3
f 37/15/10 42/15/10 199/16/10 196/16/10
f 193/1/4 186/1/4 187/2/4 192/2/4
f 187/2/45 205/2/45 208/13/45 198/13/45
f 186/1/46 206/1/46 205/2/46 187/2/46
f 42/15/47 57/15/47 209/16/47 199/16/47
f 198/13/48 208/13/48 204/11/48 197/11/48
f 199/16/49 209/16/49 206/1/49 186/1/49
f 209/16/15 216/16/15 213/1/15 206/1/15
f 203/5/12 202/5/12 214/4/12 207/4/12
f 207/4/17 214/4/17 67/17/17 55/17/17
f 206/1/16 213/1/16 200/2/16 205/2/16
f 205/2/13 200/2/13 215/13/13 208/13/13
f 197/11/50 204/11/50 203/10/50 188/10/50
f 188/5/51 203/5/51 207/4/51 189/4/51
f 189/4/52 207/4/52 55/17/52 40/17/52
f 202/5/7 212/5/7 221/4/7 214/4/7
f 214/4/7 221/4/7 79/17/7 67/17/7
f 213/1/7 220/1/7 210/2/7 200/2/7
f 200/2/7 210/2/7 222/13/7 215/13/7
f 69/15/7 81/15/7 223/16/7 216/16/7
f 208/13/11 215/13/11 201/11/11 204/11/11
f 204/11/18 201/11/18 202/10/18 203/10/18
f 57/15/14 69/15/14 216/16/14 209/16/14
f 212/5/12 219/5/12 228/4/12 221/4/12
f 221/4/17 228/4/17 91/17/17 79/17/17
f 220/1/16 227/1/16 217/2/16 210/2/16
f 210/2/13 217/2/13 229/13/13 222/13/13
f 81/15/14 93/15/14 230/16/14 223/16/14
f 211/11/18 218/11/18 219/10/18 212/10/18
f 216/16/7 223/16/7 220/1/7 213/1/7
f 215/13/7 222/13/7 211/11/7 201/11/7
f 201/11/7 211/11/7 212/10/7 202/10/7
f 219/5/1 226/5/1 235/4/1 228/4/1
f 228/4/1 235/4/1 103/17/1 91/17/1
f 227/1/1 234/1/1 224/2/1 217/2/1
f 217/2/1 224/2/1 236/13/1 229/13/1
f 93/15/1 105/15/1 237/16/1 230/16/1
f 218/11/1 225/11/1 226/10/1 219/10/1
f 223/16/15 230/16/15 227/1/15 220/1/15
f 222/13/11 229/13/11 218/11/11 211/11/11
f 234/1/16 241/1/16 231/2/16 224/2/16
f 224/2/13 231/2/13 243/13/13 236/13/13
f 105/15/14 117/15/14 244/16/14 237/16/14
f 225/11/18 232/11/18 233/10/18 226/10/18
f 236/13/11 243/13/11 232/11/11 225/11/11
f 230/16/1 237/16/1 234/1/1 227/1/1
f 229/13/1 236/13/1 225/11/1 218/11/1
f 241/1/1 248/1/1 238/2/1 231/2/1
f 231/2/1 238/2/1 250/13/1 243/13/1
f 117/15/1 129/15/1 251/16/1 244/16/1
f 232/11/1 239/11/1 240/10/1 233/10/1
f 243/13/1 250/13/1 239/11/1 232/11/1
f 235/4/17 242/4/17 115/17/17 103/17/17
f 226/5/12 233/5/12 242/4/12 235/4/12
f 237/16/15 244/16/15 241/1/15 234/1/15
f 238/2/53 245/2/53 257/13/53 250/13/53
f 129/15/54 141/15/54 258/16/54 251/16/54
f 239/11/55 246/11/55 247/10/55 240/10/55
f 250/13/56 257/13/56 246/11/56 239/11/56
f 251/16/57 258/16/57 255/1/57 248/1/57
f 242/4/1 249/4/1 127/17/1 115/17/1
f 233/5/1 240/5/1 249/4/1 242/4/1
f 244/16/1 251/16/1 248/1/1 241/1/1
f 245/2/1 252/2/1 264/13/1 257/13/1
f 141/15/1 153/15/1 265/16/1 258/16/1
f 246/11/1 253/11/1 254/10/1 247/10/1
f 257/13/1 264/13/1 253/11/1 246/11/1
f 258/16/1 265/16/1 262/1/1 255/1/1
f 248/1/58 255/1/58 245/2/58 238/2/58
f 249/4/59 256/4/59 139/17/59 127/17/59
f 240/5/60 247/5/60 256/4/60 249/4/60
f 252/2/61 259/2/61 268/13/61 264/13/61
f 153/15/62 162/15/62 269/16/62 265/16/62
f 253/11/63 260/11/63 261/10/63 254/10/63
f 264/13/64 268/13/64 260/11/64 253/11/64
f 265/16/65 269/16/65 266/1/65 262/1/65
f 255/1/1 262/1/1 252/2/1 245/2/1
f 256/4/1 263/4/1 151/17/1 139/17/1
f 247/5/1 254/5/1 263/4/1 256/4/1
f 272/37/1 267/40/1 261/39/1 260/38/1
f 269/41/1 270/44/1 259/43/1 266/42/1
f 270/44/1 271/46/1 268/45/1 259/43/1
f 271/46/1 272/37/1 260/38/1 268/45/1
f 166/47/1 168/48/1 272/37/1 271/46/1
f 164/49/1 166/47/1 271/46/1 270/44/1
f 162/50/1 164/49/1 270/44/1 269/41/1
f 168/48/1 160/51/1 267/40/1 272/37/1
f 262/1/66 266/1/66 259/2/66 252/2/66
f 263/4/67 267/4/67 160/17/67 151/17/67
f 254/5/68 261/5/68 267/4/68 263/4/68
